<svg id="Layer_1" data-name="Layer 1" xmlns="http://www.w3.org/2000/svg" viewBox="0 0 748 716"><title>logo_black</title><path d="M149.41,160.58h242q85,0,153,26t116,73.5q48,47.51,73.5,113.5t25.5,145q0,80-25.5,146t-73.5,113q-48,47-116,73t-153,26h-242Zm236,588q59,0,104-16.5t75-46.5q30-30,45-72.5t15-94.5q0-52-15-94.5t-45-72.5q-30-30-75-46.5t-104-16.5h-101v460Z" transform="translate(-149.41 -160.58)"/><path d="M811.42,876.58q-36,0-61.5-24.61t-25.5-59.38q0-34.74,25.5-58.87t61.5-24.14q36,0,61,24.14t25,58.87q0,34.75-25,59.38T811.42,876.58Z" transform="translate(-149.41 -160.58)"/></svg>