<svg id="Layer_1" data-name="Layer 1" xmlns="http://www.w3.org/2000/svg" viewBox="0 0 748.01 716"><defs><style>.cls-1{fill:#fff;}</style></defs><title>logo_white</title><path class="cls-1" d="M872.42,733.72q25,24.13,25,58.87t-25,59.38q-25,24.6-61,24.61T749.92,852q-25.5-24.62-25.5-59.38t25.5-58.87q25.5-24.15,61.5-24.14T872.42,733.72Z" transform="translate(-149.41 -160.58)"/><path class="cls-1" d="M733.91,373.58q25.5,66,25.5,145,0,80-25.5,146t-73.5,113q-48,47-116,73t-153,26h-242v-716h242q85,0,153,26t116,73.5Q708.41,307.59,733.91,373.58Zm-109.5,145q0-52-15-94.5t-45-72.5q-30-30-75-46.5t-104-16.5h-101v460h101q59,0,104-16.5t75-46.5q30-30,45-72.5T624.41,518.58Z" transform="translate(-149.41 -160.58)"/></svg>