<svg id="Layer_1" data-name="Layer 1" xmlns="http://www.w3.org/2000/svg" viewBox="0 0 878.78 191.2"><defs><style>.cls-1{fill:#3b4450;}</style></defs><title>longlogo_navy</title><path class="cls-1" d="M84,161.44h48.4a85.1,85.1,0,0,1,30.6,5.2,65.81,65.81,0,0,1,23.2,14.7A63.86,63.86,0,0,1,200.9,204a85.57,85.57,0,0,1,0,58.2,62.93,62.93,0,0,1-14.7,22.6,66.88,66.88,0,0,1-23.2,14.6,85.32,85.32,0,0,1-30.6,5.2H84ZM131.2,279a60.25,60.25,0,0,0,20.8-3.3,40.63,40.63,0,0,0,15-9.3,38.18,38.18,0,0,0,9-14.5,61,61,0,0,0,0-37.8,38.1,38.1,0,0,0-9-14.5,40.63,40.63,0,0,0-15-9.3,60.25,60.25,0,0,0-20.8-3.3H111v92Z" transform="translate(-84 -159.84)"/><path class="cls-1" d="M304.4,281a54.9,54.9,0,0,1-18.3,19.4q-11.5,7.4-28.1,7.4a54,54,0,0,1-20.7-3.9,49.38,49.38,0,0,1-27.4-27.4,54.51,54.51,0,0,1-3.9-20.9,53.66,53.66,0,0,1,3.8-20.1,50.72,50.72,0,0,1,26.7-27.9,49.22,49.22,0,0,1,20.5-4.2,53.35,53.35,0,0,1,21,3.9,42.84,42.84,0,0,1,15.4,10.8,46.44,46.44,0,0,1,9.4,16.3,63,63,0,0,1,3.2,20.4v2.4a13.81,13.81,0,0,0-.2,2.2,11.45,11.45,0,0,0-.2,2.2H231.8a27.46,27.46,0,0,0,3.3,10.3,25,25,0,0,0,6.2,7.2,24.29,24.29,0,0,0,8.1,4.2,31.45,31.45,0,0,0,9,1.3q9,0,14.9-4.1a30.07,30.07,0,0,0,9.3-10.3Zm-23.8-38a16.83,16.83,0,0,0-1.7-5.8,20.31,20.31,0,0,0-4.4-6,22.9,22.9,0,0,0-7.2-4.6,26.62,26.62,0,0,0-10.3-1.8,24,24,0,0,0-14.8,4.8,25.28,25.28,0,0,0-9,13.4Z" transform="translate(-84 -159.84)"/><path class="cls-1" d="M352.6,307.84a56.06,56.06,0,0,1-17.1-2.4,47.21,47.21,0,0,1-13-6.3,41.07,41.07,0,0,1-9.3-9,43.48,43.48,0,0,1-5.8-10.3l23.4-10q3.4,7.59,9.1,11.3a22.88,22.88,0,0,0,12.7,3.7q7.2,0,11.4-2.6c2.8-1.74,4.2-3.8,4.2-6.2a7.66,7.66,0,0,0-3.5-6.5q-3.49-2.51-12.1-4.5l-13.8-3a49,49,0,0,1-9.5-3.2,37.48,37.48,0,0,1-8.9-5.6,28.32,28.32,0,0,1-6.6-8.2,23.22,23.22,0,0,1-2.6-11.2,25.94,25.94,0,0,1,3.1-12.8,28.86,28.86,0,0,1,8.5-9.5,40.67,40.67,0,0,1,12.7-6,56.58,56.58,0,0,1,15.7-2.1,55.1,55.1,0,0,1,25,5.5,33.87,33.87,0,0,1,16.2,17.5l-22.6,9.2a17.31,17.31,0,0,0-8.2-8.4,24.61,24.61,0,0,0-10.8-2.6,20,20,0,0,0-9.8,2.3q-4.2,2.3-4.2,5.9c0,2.26,1.16,4.06,3.5,5.4a40.88,40.88,0,0,0,9.5,3.6l15,3.6q15,3.6,22.3,11.5a26.67,26.67,0,0,1,7.3,18.7,26.23,26.23,0,0,1-3,12.2,32.61,32.61,0,0,1-8.5,10.3,41.86,41.86,0,0,1-13.2,7.1A53.28,53.28,0,0,1,352.6,307.84Z" transform="translate(-84 -159.84)"/><path class="cls-1" d="M414,193.44a16.9,16.9,0,0,1-11.9-4.9,17,17,0,0,1-3.6-5.3,17.4,17.4,0,0,1,0-13.2,16.87,16.87,0,0,1,3.6-5.3,17,17,0,0,1,23.9,0,16.66,16.66,0,0,1,0,23.8A16.55,16.55,0,0,1,414,193.44Zm-13,111.2v-98h26.2v98Z" transform="translate(-84 -159.84)"/><path class="cls-1" d="M485.4,351a58.38,58.38,0,0,1-18.5-2.7,52.77,52.77,0,0,1-14.1-7,47.16,47.16,0,0,1-10-9.5,37.12,37.12,0,0,1-5.8-10.4l25-10a23.75,23.75,0,0,0,9.2,12.1,24.94,24.94,0,0,0,14.2,4.3q12.41,0,19.6-8t7.2-22.15v-6.8h-1.6a32.2,32.2,0,0,1-12.1,10.1,39.68,39.68,0,0,1-17.7,3.7,42.84,42.84,0,0,1-17.1-3.57,44.61,44.61,0,0,1-14.7-10.2,52.14,52.14,0,0,1-14.4-36.73,52.83,52.83,0,0,1,4-20.9,52.08,52.08,0,0,1,10.4-16A44.91,44.91,0,0,1,463.7,207a43,43,0,0,1,17.1-3.56,39.54,39.54,0,0,1,17.7,3.7,32,32,0,0,1,12.1,10.1h1.6v-10.6h25v91a61.94,61.94,0,0,1-3.8,22.3,48.32,48.32,0,0,1-10.6,16.8,46.14,46.14,0,0,1-16.3,10.6A57.84,57.84,0,0,1,485.4,351Zm1-70a26.8,26.8,0,0,0,9.5-1.77,24.32,24.32,0,0,0,8.3-5.2,26,26,0,0,0,5.8-8.45,28.37,28.37,0,0,0,2.2-11.49,29.09,29.09,0,0,0-2.2-11.58,25.74,25.74,0,0,0-5.8-8.54,24.35,24.35,0,0,0-8.3-5.21,27,27,0,0,0-9.5-1.76,26.15,26.15,0,0,0-9.4,1.76,23.85,23.85,0,0,0-8.2,5.3,27,27,0,0,0-5.8,8.55,31.08,31.08,0,0,0,0,23,25.81,25.81,0,0,0,5.8,8.45,24.49,24.49,0,0,0,8.2,5.2A26,26,0,0,0,486.4,281Z" transform="translate(-84 -159.84)"/><path class="cls-1" d="M574.2,219.44h1.6a33.05,33.05,0,0,1,12.4-11.7,36.21,36.21,0,0,1,17.8-4.3,40.85,40.85,0,0,1,16.2,3,29.69,29.69,0,0,1,11.5,8.5,37.53,37.53,0,0,1,6.8,13.2,59.7,59.7,0,0,1,2.3,17.1v59.4H616.6v-56.2q0-10.6-4.7-15.7t-13.7-5.1a19,19,0,0,0-9.5,2.3,22,22,0,0,0-7,6.2,27.86,27.86,0,0,0-4.4,9.2,41.31,41.31,0,0,0-1.5,11.3v48H549.6v-98h24.6Z" transform="translate(-84 -159.84)"/><path class="cls-1" d="M747.19,281a54.9,54.9,0,0,1-18.3,19.4q-11.5,7.4-28.1,7.4a54,54,0,0,1-20.7-3.9,49.38,49.38,0,0,1-27.4-27.4,54.51,54.51,0,0,1-3.9-20.9,53.66,53.66,0,0,1,3.8-20.1,50.72,50.72,0,0,1,26.7-27.9,49.22,49.22,0,0,1,20.5-4.2,53.35,53.35,0,0,1,21,3.9,42.84,42.84,0,0,1,15.4,10.8,46.44,46.44,0,0,1,9.4,16.3,63,63,0,0,1,3.2,20.4v2.4a13.81,13.81,0,0,0-.2,2.2,11.45,11.45,0,0,0-.2,2.2h-73.8a27.46,27.46,0,0,0,3.3,10.3,25,25,0,0,0,6.2,7.2,24.29,24.29,0,0,0,8.1,4.2,31.45,31.45,0,0,0,9,1.3q9,0,14.9-4.1a30.07,30.07,0,0,0,9.3-10.3Zm-23.8-38a16.83,16.83,0,0,0-1.7-5.8,20.31,20.31,0,0,0-4.4-6,22.9,22.9,0,0,0-7.2-4.6,26.62,26.62,0,0,0-10.3-1.8,24,24,0,0,0-14.8,4.8,25.28,25.28,0,0,0-9,13.4Z" transform="translate(-84 -159.84)"/><path class="cls-1" d="M795.39,307.84a56.06,56.06,0,0,1-17.1-2.4,47.21,47.21,0,0,1-13-6.3,41.07,41.07,0,0,1-9.3-9,43.48,43.48,0,0,1-5.8-10.3l23.4-10q3.4,7.59,9.1,11.3a22.88,22.88,0,0,0,12.7,3.7q7.2,0,11.4-2.6c2.8-1.74,4.2-3.8,4.2-6.2a7.66,7.66,0,0,0-3.5-6.5Q804,267,795.39,265l-13.8-3a49,49,0,0,1-9.5-3.2,37.48,37.48,0,0,1-8.9-5.6,28.32,28.32,0,0,1-6.6-8.2,23.22,23.22,0,0,1-2.6-11.2,25.94,25.94,0,0,1,3.1-12.8,28.86,28.86,0,0,1,8.5-9.5,40.67,40.67,0,0,1,12.7-6,56.58,56.58,0,0,1,15.7-2.1,55.1,55.1,0,0,1,25,5.5,33.87,33.87,0,0,1,16.2,17.5l-22.6,9.2a17.31,17.31,0,0,0-8.2-8.4,24.61,24.61,0,0,0-10.8-2.6,20,20,0,0,0-9.8,2.3q-4.2,2.3-4.2,5.9,0,3.39,3.5,5.4a40.88,40.88,0,0,0,9.5,3.6l15,3.6q15,3.6,22.3,11.5a26.62,26.62,0,0,1,7.3,18.7,26.23,26.23,0,0,1-3,12.2,32.61,32.61,0,0,1-8.5,10.3,41.86,41.86,0,0,1-13.2,7.1A53.28,53.28,0,0,1,795.39,307.84Z" transform="translate(-84 -159.84)"/><path class="cls-1" d="M882,307.84a56.06,56.06,0,0,1-17.1-2.4,47.07,47.07,0,0,1-13-6.3,41.07,41.07,0,0,1-9.3-9,43.13,43.13,0,0,1-5.8-10.3l23.4-10q3.4,7.59,9.1,11.3a22.88,22.88,0,0,0,12.7,3.7q7.2,0,11.4-2.6c2.8-1.74,4.2-3.8,4.2-6.2a7.66,7.66,0,0,0-3.5-6.5Q890.58,267,882,265l-13.8-3a49,49,0,0,1-9.5-3.2,37.48,37.48,0,0,1-8.9-5.6,28.32,28.32,0,0,1-6.6-8.2,23.22,23.22,0,0,1-2.6-11.2,25.94,25.94,0,0,1,3.1-12.8,28.75,28.75,0,0,1,8.5-9.5,40.67,40.67,0,0,1,12.7-6,56.53,56.53,0,0,1,15.7-2.1,55.13,55.13,0,0,1,25,5.5,33.87,33.87,0,0,1,16.2,17.5l-22.6,9.2a17.31,17.31,0,0,0-8.2-8.4,24.61,24.61,0,0,0-10.8-2.6,20,20,0,0,0-9.8,2.3q-4.2,2.3-4.2,5.9c0,2.26,1.16,4.06,3.5,5.4a40.88,40.88,0,0,0,9.5,3.6l15,3.6q15,3.6,22.3,11.5a26.67,26.67,0,0,1,7.3,18.7,26.23,26.23,0,0,1-3,12.2,32.61,32.61,0,0,1-8.5,10.3,41.86,41.86,0,0,1-13.2,7.1A53.32,53.32,0,0,1,882,307.84Z" transform="translate(-84 -159.84)"/><path class="cls-1" d="M945.59,304.64a17,17,0,0,1-12.3-4.93,15.9,15.9,0,0,1-5.1-11.87,15.61,15.61,0,0,1,5.1-11.78,17.28,17.28,0,0,1,12.3-4.82,16.94,16.94,0,0,1,12.2,4.82,15.77,15.77,0,0,1,5,11.78,16.06,16.06,0,0,1-5,11.87A16.72,16.72,0,0,1,945.59,304.64Z" transform="translate(-84 -159.84)"/></svg>